<svg width="50" height="50" viewBox="0 0 50 50" fill="none" xmlns="http://www.w3.org/2000/svg">
<path d="M25 0C11.1875 0 0 11.1875 0 25C0 38.8125 11.1875 50 25 50C38.8125 50 50 38.8125 50 25C50 11.1875 38.8125 0 25 0ZM27.5 42.5H22.5V37.5H27.5V42.5ZM32.6625 23.1375L30.425 25.4375C28.625 27.2375 27.5 28.75 27.5 32.5H22.5V31.25C22.5 28.4875 23.625 25.9875 25.425 24.175L28.5375 21.025C29.4375 20.125 30 18.875 30 17.5C30 14.7375 27.7625 12.5 25 12.5C22.2375 12.5 20 14.7375 20 17.5H15C15 11.975 19.475 7.5 25 7.5C30.525 7.5 35 11.975 35 17.5C35 19.7 34.1125 21.6875 32.6625 23.1375Z" fill="#BBB4BD"/>
</svg>
