<svg width="70" height="70" viewBox="0 0 70 70" fill="none" xmlns="http://www.w3.org/2000/svg">
<path d="M28.438 50.3125C28.438 54.9062 26.9067 60.375 24.5005 63.4375" stroke="url(#paint0_linear)" stroke-width="5" stroke-miterlimit="10" stroke-linecap="round" stroke-linejoin="round"/>
<path d="M45.5 63.4375C43.0937 60.375 41.5625 54.9062 41.5625 50.3125" stroke="url(#paint1_linear)" stroke-width="5" stroke-miterlimit="10" stroke-linecap="round" stroke-linejoin="round"/>
<path d="M19.6875 63.4375H50.3125" stroke="url(#paint2_linear)" stroke-width="5" stroke-miterlimit="10" stroke-linecap="round" stroke-linejoin="round"/>
<path d="M6.5625 10.9375V45.9375C6.5625 48.3438 8.53125 50.3125 10.9375 50.3125H59.0625C61.4688 50.3125 63.4375 48.3438 63.4375 45.9375V10.9375C63.4375 8.53125 61.4688 6.5625 59.0625 6.5625H10.9375C8.53125 6.5625 6.5625 8.53125 6.5625 10.9375Z" stroke="url(#paint3_linear)" stroke-width="5" stroke-miterlimit="10" stroke-linecap="round" stroke-linejoin="round"/>
<path d="M15.3125 28.4375H26.25L30.625 24.0625L35 32.8125L39.375 21.875L43.75 28.4375H54.6875" stroke="url(#paint4_linear)" stroke-width="5" stroke-miterlimit="10" stroke-linecap="round" stroke-linejoin="round"/>
<defs>
<linearGradient id="paint0_linear" x1="32.0005" y1="52.5" x2="25.0005" y2="60.5" gradientUnits="userSpaceOnUse">
<stop stop-color="#D46742"/>
<stop offset="1" stop-color="#DCAE31"/>
</linearGradient>
<linearGradient id="paint1_linear" x1="43.5312" y1="50.3125" x2="35" y2="57" gradientUnits="userSpaceOnUse">
<stop stop-color="#D46742"/>
<stop offset="1" stop-color="#DCAE31"/>
</linearGradient>
<linearGradient id="paint2_linear" x1="51.5" y1="61.5" x2="18.5" y2="64.5" gradientUnits="userSpaceOnUse">
<stop stop-color="#D46742"/>
<stop offset="1" stop-color="#DCAE31"/>
</linearGradient>
<linearGradient id="paint3_linear" x1="63" y1="7" x2="7" y2="50" gradientUnits="userSpaceOnUse">
<stop stop-color="#D46742"/>
<stop offset="1" stop-color="#DCAE31"/>
</linearGradient>
<linearGradient id="paint4_linear" x1="55" y1="27" x2="15" y2="29" gradientUnits="userSpaceOnUse">
<stop stop-color="#D46742"/>
<stop offset="1" stop-color="#DCAE31"/>
</linearGradient>
</defs>
</svg>
