<svg width="38" height="44" viewBox="0 0 38 44" fill="none" xmlns="http://www.w3.org/2000/svg">
<path d="M15.875 22H36.1875" stroke="#BBB4BD" stroke-width="2" stroke-linecap="round" stroke-linejoin="round"/>
<path d="M28.3904 36.0625V40.75H3.39038V3.25H28.3904V7.9375H31.5154V1.6875C31.5154 1.2731 31.3508 0.875671 31.0577 0.582646C30.7647 0.28962 30.3673 0.125 29.9529 0.125H1.82788C1.41348 0.125 1.01605 0.28962 0.723027 0.582646C0.430001 0.875671 0.265381 1.2731 0.265381 1.6875V42.3125C0.265381 42.7269 0.430001 43.1243 0.723027 43.4174C1.01605 43.7104 1.41348 43.875 1.82788 43.875H29.9529C30.3673 43.875 30.7647 43.7104 31.0577 43.4174C31.3508 43.1243 31.5154 42.7269 31.5154 42.3125V36.0625H28.3904Z" fill="#BBB4BD"/>
<path d="M36.1875 22L29.9375 28.25" stroke="#BBB4BD" stroke-width="2" stroke-linecap="round" stroke-linejoin="round"/>
<path d="M36.1875 22L29.9375 15.75" stroke="#BBB4BD" stroke-width="2" stroke-linecap="round" stroke-linejoin="round"/>
</svg>
