<svg width="200" height="200" viewBox="0 0 200 200" fill="none" xmlns="http://www.w3.org/2000/svg">
<path d="M100 193.75C151.777 193.75 193.75 151.777 193.75 100C193.75 48.2233 151.777 6.25 100 6.25C48.2233 6.25 6.25 48.2233 6.25 100C6.25 151.777 48.2233 193.75 100 193.75Z" fill="#F2BC0F"/>
<path opacity="0.3" d="M100 175C141.421 175 175 141.421 175 100C175 58.5786 141.421 25 100 25C58.5786 25 25 58.5786 25 100C25 141.421 58.5786 175 100 175Z" fill="white"/>
<path d="M100 193.906C123.067 193.938 145.329 185.434 162.5 170.031L158.766 161.156C156.094 154.906 149.047 150.781 141.125 150.781H58.8906C50.9687 150.781 43.9219 154.937 41.25 161.156L37.5 170.031C54.6707 185.434 76.9334 193.938 100 193.906Z" fill="#515570"/>
<path d="M148.828 94.4219C148.828 101.266 149.531 106.812 142.687 106.812C139.401 106.812 136.249 105.507 133.926 103.183C131.602 100.86 130.297 97.7081 130.297 94.4219C130.297 91.1357 131.602 87.9841 133.926 85.6604C136.249 83.3367 139.401 82.0312 142.687 82.0312C149.531 82.0312 148.828 87.5781 148.828 94.4219Z" fill="#393C54"/>
<path d="M69.7035 94.4219C69.7035 96.049 69.383 97.6603 68.7604 99.1636C68.1377 100.667 67.225 102.033 66.0744 103.183C64.9238 104.334 63.5579 105.247 62.0546 105.869C60.5513 106.492 58.9401 106.812 57.3129 106.812C50.4692 106.812 51.1723 101.266 51.1723 94.4219C51.1723 87.5781 50.4692 82.0312 57.3129 82.0312C60.5991 82.0312 63.7507 83.3367 66.0744 85.6604C68.3981 87.9841 69.7035 91.1357 69.7035 94.4219Z" fill="#393C54"/>
<path d="M99.9998 149.016C94.1882 149.018 88.4332 147.875 83.0636 145.651C77.694 143.428 72.8151 140.169 68.7057 136.06C64.5963 131.95 61.3369 127.071 59.1139 121.702C56.8909 116.332 55.7477 110.577 55.7498 104.766V81.9219C55.7498 57.4844 75.5623 42.3594 99.9998 42.3594C124.437 42.3594 144.25 57.4844 144.25 81.9219V104.766C144.252 110.577 143.109 116.332 140.886 121.702C138.663 127.071 135.403 131.95 131.294 136.06C127.184 140.169 122.306 143.428 116.936 145.651C111.566 147.875 105.811 149.018 99.9998 149.016Z" fill="#FFD8C9"/>
<path d="M88.1403 128.234C88.1046 128.037 88.1112 127.834 88.1596 127.639C88.208 127.444 88.2971 127.262 88.4211 127.104C88.5451 126.946 88.7012 126.816 88.879 126.723C89.0568 126.629 89.2524 126.575 89.4528 126.562H110.547C110.747 126.575 110.943 126.629 111.12 126.723C111.298 126.816 111.454 126.946 111.578 127.104C111.702 127.262 111.791 127.444 111.84 127.639C111.888 127.834 111.895 128.037 111.859 128.234" stroke="#393C54" stroke-width="2" stroke-linecap="round" stroke-linejoin="round"/>
<path opacity="0.1" d="M142.047 104.688C136.94 105.273 132.23 107.725 128.821 111.572C125.412 115.42 123.545 120.391 123.579 125.531V132.547" stroke="#515570" stroke-width="2" stroke-linecap="round" stroke-linejoin="round"/>
<path opacity="0.1" d="M57.9526 104.688C63.0595 105.273 67.7699 107.725 71.1788 111.572C74.5878 115.42 76.4549 120.391 76.4214 125.531V132.547" stroke="#515570" stroke-width="2" stroke-linecap="round" stroke-linejoin="round"/>
<path d="M54.6875 105.516L97.9375 115.234C99.2912 115.531 100.693 115.531 102.047 115.234L145.312 105.516V35.4688C145.312 35.1786 145.232 34.8941 145.079 34.6473C144.927 34.4005 144.708 34.201 144.449 34.0712C144.189 33.9414 143.899 33.8865 143.61 33.9126C143.321 33.9386 143.045 34.0446 142.812 34.2188L127.188 45.8594C127.188 45.8594 117.625 36.7969 100.016 36.7969C89.6964 36.6958 79.6775 40.268 71.75 46.875L57.2656 34.5313C57.0386 34.3371 56.7608 34.2121 56.4649 34.171C56.169 34.1299 55.8676 34.1745 55.5963 34.2995C55.325 34.4244 55.0952 34.6245 54.9341 34.8761C54.7731 35.1276 54.6875 35.4201 54.6875 35.7188V105.516Z" fill="#393C54"/>
<path d="M72.0785 90.2344L87.3129 93.75C87.1062 94.7704 86.6977 95.7393 86.1113 96.5996C85.525 97.4599 84.7725 98.1943 83.8983 98.7597C83.024 99.3251 82.0456 99.71 81.0204 99.8919C79.9953 100.074 78.9441 100.049 77.9287 99.8187C76.9134 99.5886 75.9542 99.1578 75.1077 98.5517C74.2611 97.9456 73.5443 97.1764 72.9993 96.2893C72.4542 95.4022 72.092 94.4151 71.9339 93.386C71.7758 92.357 71.8249 91.3067 72.0785 90.2969V90.2344Z" fill="white"/>
<path d="M79.6875 96.4688C82.0347 96.4688 83.9375 94.566 83.9375 92.2188C83.9375 89.8715 82.0347 87.9688 79.6875 87.9688C77.3403 87.9688 75.4375 89.8715 75.4375 92.2188C75.4375 94.566 77.3403 96.4688 79.6875 96.4688Z" fill="#393C54"/>
<path opacity="0.4" d="M88.0623 93.8589L71.3123 90.0464" stroke="#515570" stroke-width="2" stroke-linecap="round" stroke-linejoin="round"/>
<path d="M88.0623 92.2964L71.3123 88.4839" stroke="#515570" stroke-width="2" stroke-linecap="round" stroke-linejoin="round"/>
<path d="M121.875 174.718C122.022 174.631 122.137 174.497 122.201 174.337C122.265 174.178 122.275 174.002 122.228 173.836C122.182 173.671 122.083 173.525 121.945 173.422C121.808 173.319 121.64 173.263 121.468 173.265H108.828C108.611 173.264 108.399 173.327 108.218 173.447C108.037 173.566 107.896 173.737 107.812 173.937C107.503 174.687 107.013 175.35 106.386 175.865C105.759 176.38 105.014 176.732 104.218 176.89L102.656 177.218C102.582 177.234 102.505 177.235 102.431 177.221C102.357 177.206 102.286 177.177 102.224 177.135C102.161 177.092 102.107 177.038 102.066 176.974C102.025 176.911 101.997 176.84 101.984 176.765L101.562 174.562C101.553 174.538 101.537 174.517 101.516 174.503C101.495 174.488 101.47 174.481 101.445 174.481C101.419 174.481 101.394 174.488 101.374 174.503C101.353 174.517 101.337 174.538 101.328 174.562L100.89 175.593C100.345 175.468 99.779 175.468 99.234 175.593L98.7965 174.562C98.7876 174.538 98.7716 174.517 98.7507 174.503C98.7297 174.488 98.7048 174.481 98.6793 174.481C98.6538 174.481 98.6289 174.488 98.6079 174.503C98.587 174.517 98.571 174.538 98.5621 174.562L98.1402 176.765C98.1272 176.84 98.0993 176.911 98.0581 176.974C98.0169 177.038 97.9634 177.092 97.9007 177.135C97.8379 177.177 97.7673 177.206 97.693 177.221C97.6188 177.235 97.5423 177.234 97.4684 177.218L95.9059 176.89C95.1098 176.732 94.3651 176.38 93.7381 175.865C93.1111 175.35 92.6212 174.687 92.3121 173.937C92.2285 173.737 92.0873 173.566 91.9064 173.447C91.7256 173.327 91.5133 173.264 91.2965 173.265H78.5777C78.4059 173.263 78.2383 173.319 78.1009 173.422C77.9635 173.525 77.8639 173.671 77.8177 173.836C77.7714 174.002 77.781 174.178 77.8449 174.337C77.9089 174.497 78.0237 174.631 78.1715 174.718C79.4799 175.467 80.5756 176.538 81.3548 177.828C82.1341 179.119 82.5711 180.587 82.6246 182.093C82.6235 182.204 82.6462 182.313 82.6914 182.414C82.7365 182.515 82.8029 182.605 82.886 182.677C82.9691 182.75 83.067 182.804 83.1729 182.835C83.2788 182.867 83.3903 182.875 83.4996 182.859C86.5823 182.404 89.728 182.65 92.7027 183.578C95.4097 184.639 97.7308 186.497 99.359 188.906C99.431 189.009 99.5268 189.093 99.6384 189.151C99.7499 189.209 99.8738 189.24 99.9996 189.24C100.125 189.24 100.249 189.209 100.361 189.151C100.472 189.093 100.568 189.009 100.64 188.906C102.268 186.497 104.589 184.639 107.296 183.578C110.271 182.65 113.417 182.404 116.5 182.859C116.609 182.875 116.72 182.867 116.826 182.835C116.932 182.804 117.03 182.75 117.113 182.677C117.196 182.605 117.263 182.515 117.308 182.414C117.353 182.313 117.376 182.204 117.375 182.093C117.433 180.582 117.877 179.111 118.665 177.82C119.452 176.529 120.557 175.461 121.875 174.718Z" fill="#F8DC25"/>
<path d="M127.922 90.2344L112.688 93.75C112.894 94.7704 113.303 95.7393 113.889 96.5996C114.476 97.4599 115.228 98.1943 116.102 98.7597C116.977 99.3251 117.955 99.71 118.98 99.8919C120.005 100.074 121.056 100.049 122.072 99.8187C123.087 99.5886 124.046 99.1578 124.893 98.5517C125.739 97.9456 126.456 97.1764 127.001 96.2893C127.546 95.4022 127.909 94.4151 128.067 93.386C128.225 92.357 128.176 91.3067 127.922 90.2969V90.2344Z" fill="white"/>
<path d="M120.406 96.312C122.676 96.312 124.515 94.4722 124.515 92.2026C124.515 89.9331 122.676 88.0933 120.406 88.0933C118.136 88.0933 116.297 89.9331 116.297 92.2026C116.297 94.4722 118.136 96.312 120.406 96.312Z" fill="#393C54"/>
<path opacity="0.4" d="M111.937 93.8589L128.687 90.0464" stroke="#515570" stroke-width="2" stroke-linecap="round" stroke-linejoin="round"/>
<path d="M111.937 92.2964L128.687 88.4839" stroke="#515570" stroke-width="2" stroke-linecap="round" stroke-linejoin="round"/>
<path d="M145.312 150.781V104.688L137.5 106.813L133.203 126.016C132.466 129.311 131.061 132.42 129.075 135.15C127.089 137.881 124.564 140.175 121.656 141.891L118.312 143.344C112.537 145.868 106.303 147.171 100 147.171C93.6972 147.171 87.4626 145.868 81.6875 143.344L78.3437 141.891C75.4358 140.175 72.9107 137.881 70.9246 135.15C68.9385 132.42 67.5337 129.311 66.7969 126.016L62.5 106.813L54.6875 104.688V150.781L28.9688 161.156L31.1094 163.578C38.7912 171.917 47.9171 178.798 58.0469 183.891L88.2812 163.578C91.7836 161.349 95.8482 160.162 100 160.156C104.076 160.152 108.094 161.121 111.719 162.984L141.984 183.828C151.943 178.824 160.936 172.095 168.547 163.953C169.422 163 170.266 162.062 171.062 161.156L145.312 150.781Z" fill="#393C54"/>
<path d="M93.75 140.625C95.584 139.348 97.7652 138.664 100 138.664C102.235 138.664 104.416 139.348 106.25 140.625" stroke="#FBC0AA" stroke-width="2" stroke-linecap="round" stroke-linejoin="round"/>
<path d="M99.9996 98.6251V111.453C99.9983 111.573 99.9699 111.691 99.9166 111.798C99.8634 111.906 99.7866 112 99.692 112.073C99.5974 112.147 99.4874 112.198 99.3702 112.223C99.253 112.249 99.1317 112.247 99.0152 112.219L93.3589 110.656C93.249 110.623 93.1475 110.566 93.0617 110.489C92.9758 110.413 92.9075 110.318 92.8615 110.213C92.8155 110.108 92.7928 109.994 92.7951 109.879C92.7973 109.764 92.8244 109.65 92.8746 109.547L98.5152 98.2501C98.5933 98.0878 98.7251 97.9575 98.8883 97.8812C99.0514 97.8049 99.2359 97.7873 99.4105 97.8314C99.5852 97.8755 99.7392 97.9786 99.8465 98.1233C99.9539 98.2679 100.008 98.4451 99.9996 98.6251Z" fill="#515570"/>
</svg>
