<svg width="50" height="50" viewBox="0 0 50 50" fill="none" xmlns="http://www.w3.org/2000/svg">
<path d="M34.3755 29.1666C31.2505 29.1666 28.7505 30 26.8755 31.0416C29.7922 33.5416 31.0422 36.4583 31.2505 36.6666L31.4588 37.0833V41.6666H48.1255V37.5C47.9172 37.5 44.5838 29.1666 34.3755 29.1666Z" fill="#BBB4BD"/>
<path d="M34.3752 25C38.4022 25 41.6668 21.7354 41.6668 17.7083C41.6668 13.6812 38.4022 10.4166 34.3752 10.4166C30.3481 10.4166 27.0835 13.6812 27.0835 17.7083C27.0835 21.7354 30.3481 25 34.3752 25Z" fill="#BBB4BD"/>
<path d="M8.33325 17.7083C8.33325 13.75 11.6666 10.4166 15.6249 10.4166C19.5833 10.4166 22.9166 13.75 22.9166 17.7083C22.9166 21.6666 19.5833 25 15.6249 25C11.6666 25 8.33325 21.6666 8.33325 17.7083ZM15.6249 29.1666C5.41658 29.1666 2.08325 37.5 2.08325 37.5V41.6666H29.1666V37.5C29.1666 37.5 25.8333 29.1666 15.6249 29.1666Z" fill="#BBB4BD"/>
</svg>
