<svg width="50" height="50" viewBox="0 0 50 50" fill="none" xmlns="http://www.w3.org/2000/svg">
<path fill-rule="evenodd" clip-rule="evenodd" d="M25 0C11.25 0 0 11.25 0 25C0 38.75 11.25 50 25 50C38.75 50 50 38.75 50 25C50 11.25 38.75 0 25 0ZM42.25 15H35C34.25 11.75 33 9 31.5 6C36 7.75 40 10.75 42.25 15ZM25 5C27 8 28.75 11.25 29.75 15H20.25C21.25 11.5 23 8 25 5ZM5.75 30C5.25 28.5 5 26.75 5 25C5 23.25 5.25 21.5 5.75 20H14.25C14 21.75 14 23.25 14 25C14 26.75 14.25 28.25 14.25 30H5.75ZM7.75 35H15C15.75 38.25 17 41 18.5 44C14 42.25 10 39.25 7.75 35ZM15 15H7.75C10.25 10.75 14 7.75 18.5 6C17 9 15.75 11.75 15 15ZM25 45C23 42 21.25 38.75 20.25 35H29.75C28.75 38.5 27 42 25 45ZM30.75 30H19.25C19 28.25 18.75 26.75 18.75 25C18.75 23.25 19 21.75 19.25 20H31C31.25 21.75 31.5 23.25 31.5 25C31.5 26.75 31 28.25 30.75 30ZM31.5 44C33 41.25 34.25 38.25 35 35H42.25C40 39.25 36 42.25 31.5 44ZM36 30C36.25 28.25 36.25 26.75 36.25 25C36.25 23.25 36 21.75 36 20H44.5C45 21.5 45.25 23.25 45.25 25C45.25 26.75 45 28.5 44.5 30H36Z" fill="black"/>
</svg>
