<svg width="50" height="50" viewBox="0 0 50 50" fill="none" xmlns="http://www.w3.org/2000/svg">
<g clip-path="url(#clip0)">
<path d="M41.6668 20.8332H33.3334H16.6667V14.9999C16.6667 10.6249 19.7917 6.66654 24.1667 6.24987C29.1668 5.8332 33.3334 9.79154 33.3334 14.5832C33.3334 15.8332 34.1667 16.6665 35.4167 16.6665H37.5001C38.7501 16.6665 39.5834 15.8332 39.5834 14.5832C39.5834 6.66654 33.3334 0.208204 25.4167 -0.000128952C17.2917 -0.208462 10.4167 6.4582 10.4167 14.5832V20.8332H8.33342C6.04175 20.8332 4.16675 22.7082 4.16675 24.9999V39.5832C4.16675 45.4165 8.75008 49.9999 14.5834 49.9999H35.4167C41.2501 49.9999 45.8334 45.4165 45.8334 39.5832V24.9999C45.8334 22.7082 43.9584 20.8332 41.6668 20.8332ZM27.0834 36.8749V39.5832C27.0834 40.6249 26.0417 41.6665 25.0001 41.6665C23.9584 41.6665 22.9167 40.6249 22.9167 39.5832V36.8749C21.6667 36.2499 20.8334 34.7915 20.8334 33.3332C20.8334 31.0415 22.7084 29.1665 25.0001 29.1665C27.2917 29.1665 29.1667 31.0415 29.1667 33.3332C29.1667 34.7915 28.3334 36.2499 27.0834 36.8749Z" fill="black"/>
</g>
<defs>
<clipPath id="clip0">
<rect width="50" height="50" fill="white"/>
</clipPath>
</defs>
</svg>
