<svg width="200" height="200" viewBox="0 0 200 200" fill="none" xmlns="http://www.w3.org/2000/svg">
<path d="M15.625 15.2339V183.202L83.9844 114.843L105.469 136.327L140.625 101.171L183.594 140.234V15.2339H15.625Z" fill="#EFF3F6"/>
<path d="M58.5938 77.7339C67.2232 77.7339 74.2188 70.7383 74.2188 62.1089C74.2188 53.4794 67.2232 46.4839 58.5938 46.4839C49.9643 46.4839 42.9688 53.4794 42.9688 62.1089C42.9688 70.7383 49.9643 77.7339 58.5938 77.7339Z" fill="#FCD884"/>
<path d="M183.594 140.233V183.202H150.391V181.249L105.469 136.327L140.625 101.171L183.594 140.233Z" fill="#70993F"/>
<path d="M150.391 181.249V183.202H15.625L83.9844 114.843L105.469 136.327L150.391 181.249Z" fill="#80AF52"/>
</svg>
