<svg width="30" height="30" viewBox="0 0 30 30" fill="none" xmlns="http://www.w3.org/2000/svg">
<path d="M22.5234 24.2812C20.0859 26.25 17.0156 27.1875 13.8984 26.8828C11.4375 26.6484 9.14062 25.6875 7.28906 24.1172H10.3125V22.2422H4.21875V28.3359H6.09375V25.5469C8.22656 27.3516 10.875 28.4766 13.7344 28.7344C14.1797 28.7812 14.6016 28.8047 15.0234 28.8047C18.1875 28.8047 21.2344 27.7266 23.6953 25.7109C28.1719 22.1016 29.9297 16.2188 28.1719 10.7344L26.3906 11.2969C27.8906 16.0781 26.3906 21.1641 22.5234 24.2812Z" fill="black"/>
<path d="M24.1404 4.61716C19.1717 0.234347 11.6013 -0.0703405 6.30446 4.24216C1.85134 7.85153 0.0935258 13.6875 1.80446 19.1484L3.58571 18.5859C2.10915 13.875 3.63259 8.81247 7.47634 5.71872C12.0935 1.96872 18.6795 2.24997 22.9685 6.09372H19.9217V7.96872H26.0154V1.87497H24.1404V4.61716Z" fill="black"/>
</svg>
