<svg width="38" height="38" viewBox="0 0 38 38" fill="none" xmlns="http://www.w3.org/2000/svg">
<path d="M36.8344 32.4156L28.9016 24.4828C30.5406 22.0125 31.5 19.0547 31.5 15.875C31.5 7.25938 24.4906 0.25 15.875 0.25C7.25938 0.25 0.25 7.25938 0.25 15.875C0.25 24.4906 7.25938 31.5 15.875 31.5C19.0547 31.5 22.0125 30.5406 24.4828 28.9016L32.4156 36.8344C33.6344 38.0547 35.6156 38.0547 36.8344 36.8344C38.0547 35.6141 38.0547 33.6359 36.8344 32.4156ZM4.9375 15.875C4.9375 9.84375 9.84375 4.9375 15.875 4.9375C21.9062 4.9375 26.8125 9.84375 26.8125 15.875C26.8125 21.9062 21.9062 26.8125 15.875 26.8125C9.84375 26.8125 4.9375 21.9062 4.9375 15.875Z" fill="black" fill-opacity="0.7"/>
</svg>
