<svg width="42" height="42" viewBox="0 0 42 42" fill="none" xmlns="http://www.w3.org/2000/svg">
<path d="M36.4791 23.0312C36.5624 22.3645 36.6249 21.6875 36.6249 21C36.6249 20.3125 36.5624 19.6354 36.4791 18.9687L40.8854 15.5208C41.2812 15.2083 41.3958 14.6458 41.1354 14.1875L36.9687 6.96871C36.7083 6.52079 36.1666 6.33329 35.6979 6.52079L30.5104 8.61454C29.4374 7.79163 28.2604 7.09371 26.9895 6.56246L26.2083 1.04163C26.1145 0.552043 25.6874 0.166626 25.1666 0.166626H16.8333C16.3124 0.166626 15.8854 0.552043 15.802 1.04163L15.0208 6.56246C13.7499 7.09371 12.5729 7.78121 11.4999 8.61454L6.31245 6.52079C5.8437 6.34371 5.30203 6.52079 5.04161 6.96871L0.874946 14.1875C0.614529 14.6354 0.729113 15.1979 1.12495 15.5208L5.52078 18.9687C5.43745 19.6354 5.37495 20.3125 5.37495 21C5.37495 21.6875 5.43745 22.3645 5.52078 23.0312L1.12495 26.4791C0.729113 26.7916 0.614529 27.3541 0.874946 27.8125L5.04161 35.0312C5.30203 35.4791 5.8437 35.6666 6.31245 35.4791L11.4999 33.3854C12.5729 34.2083 13.7499 34.9062 15.0208 35.4375L15.802 40.9583C15.8854 41.4479 16.3124 41.8333 16.8333 41.8333H25.1666C25.6874 41.8333 26.1145 41.4479 26.1979 40.9583L26.9791 35.4375C28.2499 34.9062 29.427 34.2187 30.4999 33.3854L35.6874 35.4791C36.1562 35.6562 36.6979 35.4791 36.9583 35.0312L41.1249 27.8125C41.3854 27.3645 41.2708 26.802 40.8749 26.4791L36.4791 23.0312ZM20.9999 28.2916C16.9687 28.2916 13.7083 25.0312 13.7083 21C13.7083 16.9687 16.9687 13.7083 20.9999 13.7083C25.0312 13.7083 28.2916 16.9687 28.2916 21C28.2916 25.0312 25.0312 28.2916 20.9999 28.2916Z" fill="#BBB4BD"/>
</svg>
