<svg width="30" height="30" viewBox="0 0 30 30" fill="none" xmlns="http://www.w3.org/2000/svg">
<path d="M5.625 11.25V25.3125C5.625 26.8631 6.88687 28.125 8.4375 28.125H21.5625C23.1131 28.125 24.375 26.8631 24.375 25.3125V11.25H5.625ZM11.25 23.4375C11.25 23.955 10.83 24.375 10.3125 24.375C9.795 24.375 9.375 23.955 9.375 23.4375V15C9.375 14.4825 9.795 14.0625 10.3125 14.0625C10.83 14.0625 11.25 14.4825 11.25 15V23.4375ZM15.9375 23.4375C15.9375 23.955 15.5175 24.375 15 24.375C14.4825 24.375 14.0625 23.955 14.0625 23.4375V15C14.0625 14.4825 14.4825 14.0625 15 14.0625C15.5175 14.0625 15.9375 14.4825 15.9375 15V23.4375ZM20.625 23.4375C20.625 23.955 20.205 24.375 19.6875 24.375C19.17 24.375 18.75 23.955 18.75 23.4375V15C18.75 14.4825 19.17 14.0625 19.6875 14.0625C20.205 14.0625 20.625 14.4825 20.625 15V23.4375Z" fill="black" fill-opacity="0.7"/>
<path d="M25.3125 5.625H19.6875V4.6875C19.6875 3.13687 18.4256 1.875 16.875 1.875H13.125C11.5744 1.875 10.3125 3.13687 10.3125 4.6875V5.625H4.6875C3.65344 5.625 2.8125 6.46594 2.8125 7.5V8.4375C2.8125 8.955 3.2325 9.375 3.75 9.375H26.25C26.7675 9.375 27.1875 8.955 27.1875 8.4375V7.5C27.1875 6.46594 26.3466 5.625 25.3125 5.625ZM12.1875 4.6875C12.1875 4.17094 12.6084 3.75 13.125 3.75H16.875C17.3916 3.75 17.8125 4.17094 17.8125 4.6875V5.625H12.1875V4.6875Z" fill="black" fill-opacity="0.7"/>
</svg>
